<svg id="Layer_1" data-name="Layer 1" xmlns="http://www.w3.org/2000/svg" viewBox="0 0 389.64 456.92"><defs><style>.cls-1{fill:#9a9a9a;}.cls-15,.cls-2{fill:#fff;}.cls-3{fill:#fad3c7;}.cls-4{fill:#1d1d1b;}.cls-5{fill:#f19085;}.cls-6{fill:#ef8380;}.cls-7{fill:#efe0a8;}.cls-8{fill:#efefc1;}.cls-9{fill:#efefd0;}.cls-10{fill:#efd8ab;}.cls-11{fill:#efddc6;}.cls-12{fill:#efd39c;}.cls-13{font-size:55.25px;font-family:BlackHanSans-Regular, Black Han Sans;}.cls-14{fill:#ff1736;}.cls-15{stroke:#fff;stroke-linecap:round;stroke-linejoin:round;stroke-width:1.43px;}</style></defs><rect class="cls-1" width="389.64" height="237.91"/><rect class="cls-2" x="32.47" y="19.83" width="324.7" height="198.26"/><polygon class="cls-3" points="161.96 150.45 136.37 168.48 136.37 430.18 160.8 449.38 284.67 449.38 301.54 427.86 301.54 177.2 278.86 149.87 161.96 150.45"/><ellipse class="cls-4" cx="262.25" cy="232.23" rx="5.07" ry="9.87" transform="translate(-63.95 -11.22) rotate(-0.32)"/><ellipse class="cls-4" cx="312.9" cy="231.97" rx="5.07" ry="9.87" transform="translate(-63.95 -10.94) rotate(-0.32)"/><path class="cls-5" d="M251.9,258.61c-2,2.23,20.1,31.38,35.85,31.3s37.48-29.51,35.51-31.67S298,263,287.6,263,253.89,256.39,251.9,258.61Z" transform="translate(-62.65 -12.7)"/><path class="cls-6" d="M378.9,183.83c0-15.62-13-28.27-29.06-28.25l-124.38.17c-16,0-29.07,12.7-29.05,28.32V441.13c0,15.62,13,28.3,29.05,28.32l124.38.17c16,0,29-12.63,29.06-28.25ZM337.49,453.44l-99.5-.13c-14.43,0-26.11-11.43-26.09-25.49V197.38c0-14.06,11.66-25.47,26.09-25.49l99.5-.13c14.43,0,26,11.36,26.06,25.42V428C363.53,442.07,351.92,453.46,337.49,453.44Z" transform="translate(-62.65 -12.7)"/><path class="cls-7" d="M220.38,296.09a12.89,12.89,0,0,0-8.85-7.18,7.63,7.63,0,0,0,0-1.58,6.4,6.4,0,1,0-12.68,1.7c-.35-.1-.7-.19-1.06-.26-5.21-1-10.16,2-11.06,6.78s2.59,9.37,7.8,10.36a10,10,0,0,0,7.36-1.39c.08.18.15.36.24.54,3,6.05,9.47,8.95,14.52,6.48S223.35,302.15,220.38,296.09Z" transform="translate(-62.65 -12.7)"/><path class="cls-7" d="M246.66,271.65a12.91,12.91,0,0,0-3.07,11,6.78,6.78,0,0,0-1.43.65,6.4,6.4,0,1,0,6.6,11,10.13,10.13,0,0,0,.18,1.08c1.16,5.17,5.91,8.5,10.61,7.45s7.57-6.11,6.41-11.28a10,10,0,0,0-4.21-6.2c.14-.15.27-.28.4-.43,4.38-5.14,4.46-12.25.18-15.9S251,266.52,246.66,271.65Z" transform="translate(-62.65 -12.7)"/><path class="cls-8" d="M251.54,271.54a11.25,11.25,0,0,0-7.74-6.26,6.39,6.39,0,0,0,0-1.38,5.6,5.6,0,1,0-11.1,1.49,9,9,0,0,0-.93-.23c-4.55-.86-8.89,1.79-9.68,5.92s2.26,8.17,6.82,9a8.8,8.8,0,0,0,6.45-1.21c.07.15.13.31.21.47,2.59,5.28,8.28,7.81,12.7,5.65S254.14,276.82,251.54,271.54Z" transform="translate(-62.65 -12.7)"/><path class="cls-9" d="M203.12,284.59a11.76,11.76,0,0,0,10.24-1.92,6.26,6.26,0,0,0,1.13.91,5.83,5.83,0,1,0,6.26-9.83,9.19,9.19,0,0,0,.81-.58c3.76-3,4.54-8.28,1.74-11.71s-8.1-3.73-11.86-.69a9.07,9.07,0,0,0-3.35,6c-.17-.05-.34-.11-.52-.15-6-1.51-11.86,1.3-13.09,6.28S197.12,283.08,203.12,284.59Z" transform="translate(-62.65 -12.7)"/><path class="cls-10" d="M216.19,293.83a12.88,12.88,0,0,0,9.65,6.06,7.62,7.62,0,0,0,.22,1.56,6.41,6.41,0,1,0,12.39-3.22c.35.06.71.11,1.08.14,5.29.35,9.83-3.26,10.16-8.07s-3.71-9-9-9.34a10,10,0,0,0-7.14,2.27c-.1-.17-.19-.34-.3-.5-3.68-5.66-10.48-7.75-15.19-4.69S212.51,288.18,216.19,293.83Z" transform="translate(-62.65 -12.7)"/><polygon class="cls-11" points="219.07 389.84 140.12 400.53 119.36 297.12 211.57 284.63 219.07 389.84"/><path class="cls-11" d="M271.14,293l-87.31,11.83c-4,.55-7,3.09-6.64,5.67s3.9,4.24,7.91,3.7l87.31-11.83c4-.54,7-3.08,6.65-5.67S275.16,292.5,271.14,293Z" transform="translate(-62.65 -12.7)"/><polygon class="cls-12" points="316.38 335.95 275.62 341.83 262.57 275.63 310.19 268.76 316.38 335.95"/><path class="cls-12" d="M371.15,278.69l-45.09,6.5c-2.07.3-3.56,1.88-3.32,3.54s2.11,2.75,4.19,2.45l45.08-6.5c2.08-.3,3.56-1.88,3.33-3.54S373.22,278.39,371.15,278.69Z" transform="translate(-62.65 -12.7)"/><path class="cls-12" d="M326.24,243.41l19.55,7.72a3.66,3.66,0,0,1,3,3.08l3.77,25.34-7.24,1.07-3.44-23.15-18.38-7.25Z" transform="translate(-62.65 -12.7)"/><path class="cls-6" d="M215.11,318.31c1-.63,3.38,1.33,4.61,2.57a7.23,7.23,0,0,1,2.11-.9,10.06,10.06,0,0,1,.31-1.75c.86-3.12,3.06-5.23,4.91-4.72s2.65,3.45,1.78,6.57c0,.15-.09.3-.13.45l1,.42a9.59,9.59,0,0,1,.8-1.31c1.9-2.62,4.7-3.82,6.25-2.7s1.26,4.16-.64,6.78A9.16,9.16,0,0,1,235,325c.19.24.38.49.55.73,2.29-1,4.53-.84,5.39.5,1,1.61-.32,4.34-3,6.09l-.57.33a7.24,7.24,0,0,1-1.25,3,6.52,6.52,0,0,1-5.78,2.57c.8,1,1.21,1.87.82,2.41-1.13,1.55-6.93-2.35-9.55-4.25s-8.12-6.22-7-7.77c.31-.43,1-.44,1.88-.19a9.23,9.23,0,0,1-1.27-2.08C213.85,323.4,212.27,320,215.11,318.31Z" transform="translate(-62.65 -12.7)"/><path class="cls-6" d="M215.77,334.71c-8.14,9.3-12.12,14.54-20.26,17.44a24.61,24.61,0,0,1-5.9,1.51,4.2,4.2,0,0,0-1.08-.15,4.46,4.46,0,0,0,0,8.92,4.91,4.91,0,0,0,.78-.08c3.8.38,9.89-1.47,9.89-1.47,8.91-3.1,16.28-11.05,24.42-20.36Z" transform="translate(-62.65 -12.7)"/><path class="cls-6" d="M359.2,297.25c-1.05-.64-3.4,1.3-4.63,2.53a7.27,7.27,0,0,0-2.11-.92,9.16,9.16,0,0,0-.3-1.75c-.83-3.13-3-5.26-4.86-4.76s-2.68,3.43-1.84,6.55c0,.15.09.3.13.45-.33.13-.67.27-1,.42a9.59,9.59,0,0,0-.79-1.32c-1.88-2.63-4.67-3.86-6.23-2.75s-1.3,4.15.58,6.78a9.3,9.3,0,0,0,1.13,1.33c-.19.24-.38.48-.55.72-2.29-1-4.53-.88-5.4.45-1.05,1.61.29,4.34,3,6.12.18.12.37.23.56.34a7.07,7.07,0,0,0,1.23,3,6.49,6.49,0,0,0,5.76,2.62c-.82,1-1.23,1.86-.84,2.4,1.11,1.56,6.94-2.29,9.57-4.17s8.18-6.15,7.06-7.71c-.31-.44-1-.45-1.88-.2a9.28,9.28,0,0,0,1.29-2.08C360.42,302.35,362,299,359.2,297.25Z" transform="translate(-62.65 -12.7)"/><path class="cls-6" d="M358.27,313.71c7.79,9.59,11.57,15,19.6,18.17a24.5,24.5,0,0,0,5.85,1.72,4.31,4.31,0,0,1,1.08-.11,4.46,4.46,0,0,1-.33,8.91,4.91,4.91,0,0,1-.77-.1c-3.81.24-9.82-1.84-9.82-1.84-8.8-3.42-15.87-11.63-23.67-21.23Z" transform="translate(-62.65 -12.7)"/><text class="cls-13" transform="translate(162.59 132.97) scale(0.5 1)">YouTube</text><path class="cls-14" d="M213,102.4H163.7a7.27,7.27,0,0,0-7.17,7.37l0,31.56a7.29,7.29,0,0,0,7.19,7.37h49.18a7.28,7.28,0,0,0,7.19-7.37l0-31.56A7.26,7.26,0,0,0,213,102.4Z" transform="translate(-62.65 -12.7)"/><polygon class="cls-15" points="119.48 123.33 119.48 103.17 138.05 113.25 119.48 123.33"/></svg>
